# xmcd
#
# Track frame offsets: 
#        150
#        24667
#        45067
#        62238
#        82371
#        102280
#        118438
#        135163
#        152482
#        175650
#        190950
#
# Disc length: 2715 seconds
#
# Revision: 0
# Processed by: cddbd v1.5.2PL0 Copyright (c) Steve Scherf et al.
# Submitted via: ExactAudioCopyFreeDBPlugin 1.0
#
DISCID=8c0a990b
DTITLE=Emilia Sisco and Helge Tallqvist Band - You Ain't Heard
DYEAR=2018
DGENRE=Blues
TTITLE0=You Ain't Heard
TTITLE1=I Don't Wanna Fuss
TTITLE2=Don't Let Me Down
TTITLE3=A Real Mother For Ya
TTITLE4=One More Kiss
TTITLE5=I'm The One Who's Standing Tall
TTITLE6=When I'm With That Man
TTITLE7=Tease Me
TTITLE8=Love Me
TTITLE9=Homework
TTITLE10=Wake Up Alone
EXTD=
EXTT0=
EXTT1=
EXTT2=
EXTT3=
EXTT4=
EXTT5=
EXTT6=
EXTT7=
EXTT8=
EXTT9=
EXTT10=
PLAYORDER=
